<!--?xml version="1.0" standalone="no"?--><svg version="1.0" xmlns="http://www.w3.org/2000/svg" width="296.000000pt" height="300.000000pt" viewBox="0 0 296.000000 300.000000" preserveAspectRatio="xMidYMid meet">
<metadata>
  <rdf:rdf xmlns:rdf="http://www.w3.org/1999/02/22-rdf-syntax-ns#" xmlns:rdfs="http://www.w3.org/2000/01/rdf-schema#" xmlns:dc="http://purl.org/dc/elements/1.1/">
    <rdf:description dc:title="paper with quill" dc:publisher="Hiox" dc:date="2015-03-14" dc:format="image/svg+xml" dc:language="en">
      <dc:creator>
        <rdf:bag>
          <rdf:li>svgimages.com</rdf:li>
        </rdf:bag>
      </dc:creator>
    </rdf:description>
  </rdf:rdf>
</metadata>
<g transform="translate(0.000000,300.000000) scale(0.100000,-0.100000)" fill="#080808" stroke="none">
<path d="M1410 2993 c-61 -10 -135 -40 -265 -108 -77 -40 -246 -127 -375 -193
-129 -66 -309 -159 -399 -205 -234 -121 -297 -182 -343 -331 -37 -123 -11
-260 72 -383 22 -32 88 -119 147 -194 59 -74 160 -202 223 -283 63 -81 161
-207 218 -279 57 -73 131 -168 166 -212 34 -44 91 -116 126 -160 81 -103 93
-132 88 -216 -4 -79 -35 -134 -99 -176 -49 -32 -140 -43 -192 -22 -121 49
-181 191 -128 304 20 42 61 90 83 97 17 6 -101 167 -123 167 -27 1 -118 -105
-152 -176 -30 -64 -32 -74 -32 -183 0 -109 2 -118 32 -180 68 -139 193 -228
361 -255 55 -9 169 17 237 55 41 22 490 303 615 385 19 12 148 93 285 180 138
87 268 169 289 184 184 122 246 345 151 538 -20 41 -43 77 -50 79 -7 3 -30 -3
-52 -14 -21 -11 -63 -25 -93 -32 -30 -7 -58 -15 -63 -17 -4 -2 8 -23 27 -46
82 -101 86 -202 11 -286 -19 -21 -119 -91 -222 -156 -103 -65 -224 -141 -268
-170 -44 -29 -94 -60 -110 -69 -17 -9 -86 -52 -155 -96 -88 -57 -126 -77 -131
-68 -3 7 -10 35 -14 63 -11 76 -44 130 -198 326 -78 100 -151 193 -162 208
-11 14 -69 89 -129 166 -119 151 -156 199 -385 493 -173 222 -193 264 -173
352 15 64 52 113 109 147 36 21 58 26 113 26 97 0 157 -40 199 -133 38 -84 23
-163 -45 -239 -51 -57 -54 -43 30 -149 l49 -62 61 33 c74 41 436 245 526 297
36 21 154 88 263 150 210 120 232 138 287 242 82 153 52 349 -72 476 -55 57
-114 91 -200 113 -71 19 -89 20 -138 12z m121 -227 c70 -30 112 -88 124 -169
6 -40 3 -56 -20 -102 -29 -60 -55 -80 -225 -175 -52 -29 -115 -64 -140 -78
-79 -44 -294 -168 -330 -190 -19 -12 -40 -22 -45 -22 -6 0 -16 32 -23 71 -17
99 -55 174 -125 243 -47 48 -56 61 -45 71 10 10 396 210 668 347 43 21 116 23
161 4z" id="node1" class="node"></path>
<path d="M2730 2704 c-123 -32 -223 -79 -260 -121 -17 -19 -39 -63 -51 -103
-29 -96 -49 -91 -49 11 0 27 -4 49 -9 49 -12 0 -146 -89 -206 -137 -43 -34
-53 -49 -72 -109 -13 -39 -23 -96 -23 -127 0 -31 -4 -59 -10 -62 -12 -7 -35
47 -45 104 -4 22 -10 41 -14 41 -11 0 -63 -59 -104 -117 -68 -97 -97 -182 -97
-284 0 -59 23 -169 36 -169 3 0 51 42 107 93 127 115 191 167 205 167 7 0 -21
-44 -62 -97 -98 -131 -150 -207 -229 -335 -89 -143 -189 -331 -174 -325 7 2
42 14 80 26 61 21 70 27 88 64 34 67 147 253 161 264 7 6 45 13 84 15 120 6
257 88 374 224 56 65 59 74 22 74 -42 0 -132 22 -132 32 0 4 12 10 28 13 180
38 212 52 250 112 44 69 102 182 102 198 0 10 -18 15 -67 17 -40 2 -66 7 -63
13 3 5 41 22 84 37 89 31 106 43 140 102 28 49 91 215 105 278 6 24 13 52 17
61 5 15 -2 17 -57 17 -35 -1 -107 -12 -159 -26z" id="node2" class="node"></path>
<path d="M1525 1754 c-11 -8 -56 -36 -100 -60 -44 -25 -105 -60 -135 -78 -30
-18 -122 -72 -205 -120 -82 -49 -154 -92 -158 -96 -11 -10 70 -130 87 -130 7
0 32 13 57 28 24 15 114 68 199 117 289 167 375 221 374 237 -2 20 -75 118
-89 118 -5 0 -19 -8 -30 -16z" id="node3" class="node"></path>
<path d="M1450 1313 c-72 -44 -108 -65 -252 -149 -37 -21 -68 -43 -68 -47 0
-8 39 -66 74 -110 16 -20 8 -24 150 58 l68 40 64 128 c37 73 59 127 52 126 -7
0 -47 -21 -88 -46z" id="node4" class="node"></path>
</g>
<g transform="translate(0.000000,300.000000) scale(0.100000,-0.100000)" fill="#A0A0A0" stroke="none">



</g>
</svg>